<svg viewBox="0 0 62 16" fill="none" xmlns="http://www.w3.org/2000/svg">
<g id="Gelato">
<path id="Gelato Lettering" fill-rule="evenodd" clip-rule="evenodd" d="M9.5679 0.437468C8.81464 0.204416 8.11525 0.0878906 7.41559 0.0878906C6.12426 0.0878906 4.94065 0.437468 3.8645 1.02006C2.78835 1.6609 1.98123 2.53479 1.3893 3.69997C0.797358 4.86516 0.52832 6.14687 0.52832 7.6616C0.52832 9.17633 0.851219 10.458 1.44316 11.6232C2.03483 12.7884 2.8958 13.6623 3.9181 14.3032C4.94065 14.944 6.0704 15.2936 7.362 15.2936C8.54561 15.2936 9.62176 15.0605 10.5905 14.4779C11.5589 13.9536 12.3121 13.138 12.9041 12.031C13.496 10.9241 13.7651 9.64243 13.7651 8.12767V7.48683C13.7651 7.40547 13.7651 7.31149 13.7652 7.21076L13.7652 7.08998C13.7653 6.95524 13.6644 6.84599 13.54 6.84599H7.96289C7.83844 6.84599 7.73756 6.95522 7.73756 7.08997V9.22368C7.73756 9.35843 7.83844 9.46766 7.96289 9.46766H10.5084C10.6002 9.46766 10.6707 9.55607 10.6541 9.65382C10.6008 9.96845 10.5257 10.2542 10.4289 10.5163C10.2137 11.1572 9.83694 11.565 9.29886 11.9145C8.81464 12.2058 8.16911 12.3806 7.362 12.3806C6.7162 12.3806 6.0704 12.1476 5.53233 11.798C4.94065 11.3902 4.51003 10.8659 4.18713 10.1667C3.8645 9.46766 3.70292 8.65201 3.70292 7.71988C3.70292 6.78771 3.8645 5.9721 4.18713 5.27298C4.51003 4.57386 4.94065 3.99127 5.53233 3.64173C6.12426 3.23391 6.77006 3.05914 7.46945 3.05914C8.11525 3.05914 8.76078 3.23391 9.29886 3.5252C9.77712 3.78412 10.213 4.22714 10.5684 4.77243C10.6418 4.88501 10.785 4.91741 10.8901 4.83979L12.8919 3.36198C12.9896 3.28983 13.0197 3.14777 12.9553 3.04033C12.5875 2.42656 12.0953 1.9085 11.5589 1.48613C10.9131 1.02006 10.3214 0.670484 9.5679 0.437468ZM26.8021 0.909131L29.2032 0.224387C29.3461 0.183638 29.486 0.300328 29.486 0.46032V14.8165C29.486 14.9513 29.3851 15.0605 29.2606 15.0605H26.8595C26.7351 15.0605 26.6342 14.9513 26.6342 14.8165V1.14506C26.6342 1.03425 26.7031 0.937355 26.8021 0.909131ZM55.1274 6.96245C55.5041 6.72941 55.8807 6.61289 56.3112 6.61289C56.7954 6.61289 57.1721 6.78767 57.4949 6.96245C57.8178 7.13723 58.0868 7.48677 58.3021 7.95285C58.5173 8.41892 58.6249 8.94326 58.6249 9.58412C58.6249 10.225 58.5173 10.7493 58.3021 11.2154C58.1406 11.6814 57.8716 12.031 57.4949 12.264C57.1721 12.4971 56.7416 12.6136 56.3112 12.6136C55.8807 12.6136 55.4503 12.4971 55.1274 12.264C54.8046 12.031 54.5355 11.6814 54.3203 11.2154C54.1051 10.7493 53.9974 10.225 53.9974 9.58412C53.9974 8.94326 54.1051 8.41892 54.3203 7.95285C54.4817 7.54503 54.7508 7.19549 55.1274 6.96245ZM59.0015 4.57381C58.2482 4.10774 57.3335 3.87469 56.3112 3.87469C55.3426 3.87469 54.4279 4.10774 53.6208 4.57381C52.8137 5.03989 52.2218 5.739 51.7375 6.61289C51.2533 7.48678 51.038 8.47719 51.038 9.58412C51.038 10.691 51.3071 11.6815 51.7375 12.5553C52.168 13.4292 52.8137 14.1283 53.6208 14.5944C54.4279 15.0605 55.3426 15.2935 56.3112 15.2935C57.2797 15.2935 58.1944 15.0605 59.0015 14.5944C59.8087 14.1283 60.4005 13.4292 60.8848 12.5553C61.3691 11.6815 61.5843 10.691 61.5843 9.58412C61.5843 8.47719 61.3153 7.48678 60.8848 6.61289C60.4544 5.739 59.8087 5.03989 59.0015 4.57381ZM38.6353 13.95C38.6566 13.913 38.7184 13.93 38.7184 13.9736V14.8166C38.7184 14.9514 38.8193 15.0606 38.9438 15.0606H41.3448C41.4693 15.0606 41.5701 14.9514 41.5701 14.8166V4.46836C41.5701 4.33361 41.4693 4.22438 41.3448 4.22438H38.9438C38.8193 4.22438 38.7184 4.33361 38.7184 4.46836V5.40607C38.7184 5.48616 38.6205 5.51975 38.5754 5.45624C38.4244 5.24357 38.2563 5.04598 38.0726 4.86522C37.4808 4.22438 36.6737 3.93308 35.7052 3.93308C34.8443 3.93308 34.0909 4.16613 33.3914 4.69048C32.7457 5.15655 32.2077 5.85567 31.831 6.72956C31.4544 7.60345 31.293 8.59383 31.293 9.64252C31.293 10.6912 31.4544 11.6816 31.831 12.5555C32.2077 13.4294 32.692 14.0702 33.3914 14.5946C34.0372 15.1189 34.8443 15.3519 35.7052 15.3519C36.7276 15.3519 37.4808 15.0024 38.1265 14.5363C38.3729 14.3584 38.5427 14.1106 38.6353 13.95ZM37.6423 12.2059C37.2657 12.439 36.8889 12.5555 36.4584 12.5555C36.0281 12.5555 35.6514 12.439 35.2747 12.2059C34.9519 11.9729 34.6829 11.6233 34.4676 11.1573C34.3062 10.6911 34.1985 10.1668 34.1985 9.58424C34.1985 9.00165 34.2524 8.53558 34.4676 8.06948C34.6829 7.66169 34.9519 7.31212 35.2747 7.0791C35.6514 6.84605 36.0281 6.72956 36.4584 6.72956C36.8889 6.72956 37.3194 6.84605 37.6423 7.0791C37.9651 7.31212 38.2341 7.60341 38.4494 8.06948C38.6109 8.4773 38.7184 9.00165 38.7184 9.58424C38.7184 10.1668 38.6646 10.6911 38.4494 11.1573C38.2341 11.6233 37.9651 11.9729 37.6423 12.2059ZM47.8319 6.61294C47.7904 6.61294 47.7567 6.64935 47.7567 6.69427V10.8658C47.7567 11.8562 48.1334 12.3806 48.8867 12.3806H49.7376C49.862 12.3806 49.9629 12.4898 49.9629 12.6246V14.8166C49.9629 14.9513 49.862 15.0605 49.7376 15.0605H48.5101C47.3801 15.0605 46.4654 14.711 45.8735 14.0118C45.2278 13.3128 44.9049 12.3223 44.9049 11.0406V6.69427C44.9049 6.64935 44.8713 6.61294 44.8298 6.61294H43.1649C43.0105 6.61294 42.9018 6.44859 42.9516 6.29033L43.5493 4.38963C43.5804 4.29076 43.6661 4.22429 43.7626 4.22429H44.8298C44.8713 4.22429 44.9049 4.18788 44.9049 4.14296V1.22642C44.9049 1.11561 44.9739 1.01871 45.0728 0.99049L47.5683 0.278869C47.6635 0.251703 47.7567 0.329497 47.7567 0.436158V4.14296C47.7567 4.18788 47.7904 4.22429 47.8319 4.22429H49.7984C49.9528 4.22429 50.0614 4.38863 50.0117 4.5469L49.414 6.4476C49.3829 6.54646 49.2971 6.61294 49.2007 6.61294H47.8319ZM20.0916 3.87469C21.06 3.87469 21.8671 4.10775 22.5666 4.57381C23.2662 5.03988 23.858 5.739 24.2346 6.61289C24.6651 7.48678 24.8265 8.47719 24.8265 9.5841V10.0975C24.8265 10.2323 24.7256 10.3415 24.6012 10.3415H18.2153C18.1242 10.3415 18.0539 10.4287 18.0695 10.5259C18.1165 10.8174 18.1828 11.0736 18.2619 11.2736C18.4773 11.7397 18.7464 12.0893 19.069 12.264C19.3919 12.4388 19.8225 12.6136 20.3606 12.6136C20.8448 12.6136 21.329 12.4971 21.6519 12.3223C21.9632 12.1779 22.2377 11.914 22.4754 11.5966C22.5572 11.4874 22.7056 11.4649 22.8064 11.5535L24.4428 12.99C24.5369 13.0726 24.5543 13.2214 24.4776 13.3229C24.0189 13.9303 23.4672 14.3929 22.7818 14.7109C22.0286 15.0605 21.2213 15.2353 20.3606 15.2353C19.338 15.2353 18.4235 15.0022 17.6164 14.5361C16.8092 14.0701 16.2173 13.371 15.787 12.4971C15.3563 11.6232 15.1412 10.6328 15.1412 9.52585C15.1412 8.41891 15.3563 7.42853 15.787 6.55464C16.2173 5.68075 16.8092 5.03988 17.5625 4.51557C18.3158 4.10775 19.1229 3.87469 20.0916 3.87469ZM18.2787 8.30242C18.1839 8.30242 18.1127 8.20848 18.1351 8.10881C18.2295 7.68972 18.3664 7.34644 18.5309 7.07896C18.8538 6.55461 19.3919 6.26335 20.0916 6.26335C20.7371 6.26335 21.2752 6.55461 21.5981 7.07896C21.7589 7.34019 21.8929 7.68818 21.9871 8.10853C22.0095 8.20833 21.9382 8.30242 21.8433 8.30242H18.2787Z" fill="white"/>
</g>
</svg>
